<?xml version="1.0" encoding="utf-8"?>
<!-- Generator: Adobe Illustrator 26.3.1, SVG Export Plug-In . SVG Version: 6.00 Build 0)  -->
<svg version="1.1" id="Layer_1" xmlns="http://www.w3.org/2000/svg" xmlns:xlink="http://www.w3.org/1999/xlink" x="0px" y="0px"
	 viewBox="0 0 32 32" style="enable-background:new 0 0 32 32;" xml:space="preserve">
<style type="text/css">
	.st0{fill-rule:evenodd;clip-rule:evenodd;fill:#222C37;}
	.st1{fill:#FFFFFF;}
	.st2{fill:#00979D;stroke:#81C9CB;stroke-width:1.6973;stroke-miterlimit:18.2116;}
</style>
<path class="st0" d="M72.8,32c8.8,0,16-7.2,16-16s-7.2-16-16-16s-16,7.2-16,16C56.8,24.8,64,32,72.8,32z"/>
<g>
	<path class="st1" d="M74.3,16l4.4-7.6l2.1,7.6l-2.1,7.6L74.3,16L74.3,16z M72.2,17.2l4.4,7.6l-7.6-2l-5.5-5.6H72.2L72.2,17.2z
		 M76.6,7.2l-4.4,7.6h-8.8l5.5-5.6L76.6,7.2L76.6,7.2z M82.8,13.4l-2.7-10l-10,2.7l-1.5,2.6h-3L58.4,16l7.3,7.3l0,0h3l1.5,2.6
		l10,2.7l2.7-10L81.3,16L82.8,13.4L82.8,13.4z"/>
</g>
<path class="st2" d="M30.8,16c0,8.2-6.6,14.8-14.8,14.8C7.8,30.8,1.2,24.2,1.2,16C1.2,7.8,7.8,1.2,16,1.2C24.2,1.2,30.8,7.8,30.8,16
	L30.8,16z"/>
<g>
	<path class="st1" d="M21.7,21.3c-0.3,0-0.6,0-0.8-0.1c-2.4-0.3-3.9-2-4.8-3.3c-0.9,1.3-2.5,3-4.8,3.3c-0.3,0-0.6,0.1-0.8,0.1
		c-1.5,0-2.8-0.5-3.9-1.5c-1-1-1.6-2.3-1.6-3.8c0-1.4,0.6-2.8,1.6-3.8c1-1,2.4-1.5,3.9-1.5c0.3,0,0.6,0,0.8,0.1
		c2.4,0.3,3.9,2,4.8,3.3c0.9-1.3,2.5-3,4.8-3.3c0.3,0,0.6-0.1,0.8-0.1c1.5,0,2.8,0.5,3.9,1.5c1,1,1.6,2.3,1.6,3.8
		c0,1.4-0.6,2.8-1.6,3.8C24.5,20.7,23.1,21.3,21.7,21.3 M17,16c0.5,0.9,1.8,3.1,4,3.4c0.2,0,0.4,0,0.6,0c2,0,3.6-1.5,3.6-3.4
		s-1.6-3.4-3.6-3.4c-0.2,0-0.4,0-0.6,0C18.9,12.9,17.5,15.1,17,16 M10.3,12.6c-2,0-3.6,1.5-3.6,3.4c0,1.9,1.6,3.4,3.6,3.4
		c0.2,0,0.4,0,0.6,0c2.2-0.3,3.6-2.5,4-3.4c-0.5-0.9-1.8-3.1-4-3.4C10.7,12.6,10.5,12.6,10.3,12.6"/>
	<path class="st1" d="M8.8,15.5h3.3v1.1H8.8V15.5z M23.1,15.5H22v-1.1H21v1.1h-1.1v1.1H21v1.1H22v-1.1h1.1V15.5z"/>
</g>
</svg>
