<?xml version="1.0" encoding="utf-8"?>
<!-- Generator: Adobe Illustrator 26.3.1, SVG Export Plug-In . SVG Version: 6.00 Build 0)  -->
<svg version="1.1" id="Layer_1" xmlns="http://www.w3.org/2000/svg" xmlns:xlink="http://www.w3.org/1999/xlink" x="0px" y="0px"
	 viewBox="0 0 32 32" style="enable-background:new 0 0 32 32;" xml:space="preserve">
<style type="text/css">
	.st0{fill:#A179DC;}
	.st1{fill:#280068;}
	.st2{fill:#390091;}
	.st3{fill:#FFFFFF;}
</style>
<g>
	<path class="st0" d="M30.2,9.4c0-0.5-0.1-1-0.3-1.4c-0.2-0.4-0.6-0.7-1-1c-3.8-2.2-7.6-4.4-11.4-6.6c-1-0.6-2-0.6-3,0
		C12.9,1.4,5.4,5.7,3.1,7C2.2,7.5,1.8,8.3,1.8,9.4c0,4.4,0,8.8,0,13.2c0,0.5,0.1,1,0.3,1.4c0.2,0.4,0.6,0.8,1,1
		c2.3,1.3,9.8,5.6,11.3,6.5c1,0.6,2,0.6,3,0c3.8-2.2,7.6-4.4,11.4-6.6c0.5-0.3,0.8-0.6,1-1c0.2-0.4,0.3-0.9,0.3-1.4
		C30.2,22.6,30.2,13.8,30.2,9.4"/>
	<path class="st1" d="M16,16L2.1,24c0.2,0.4,0.6,0.8,1,1c2.3,1.3,9.8,5.6,11.3,6.5c1,0.6,2,0.6,3,0c3.8-2.2,7.6-4.4,11.4-6.6
		c0.5-0.3,0.8-0.6,1-1L16,16"/>
	<path class="st2" d="M30.2,9.4c0-0.5-0.1-1-0.3-1.4L16,16l13.9,8c0.2-0.4,0.3-0.9,0.3-1.4C30.2,22.6,30.2,13.8,30.2,9.4"/>
	<path class="st3" d="M24.3,13v1.5h1.5V13h0.8v1.5H28v0.8h-1.5v1.5H28v0.8h-1.5V19h-0.8v-1.5h-1.5V19h-0.8v-1.5H22v-0.8h1.5v-1.5H22
		v-0.8h1.5V13H24.3z M25.8,15.2h-1.5v1.5h1.5V15.2z"/>
	<path class="st3" d="M16.1,5.4c3.9,0,7.3,2.1,9.2,5.3l0,0l-4.6,2.7c-0.9-1.5-2.6-2.6-4.5-2.6l-0.1,0c-2.9,0-5.3,2.4-5.3,5.3
		c0,1,0.3,1.8,0.7,2.6c0.9,1.6,2.6,2.7,4.6,2.7c2,0,3.7-1.1,4.6-2.7l0,0l4.6,2.7c-1.8,3.1-5.2,5.3-9.1,5.3l-0.1,0
		c-3.9,0-7.4-2.1-9.2-5.3C6,19.7,5.5,17.9,5.5,16C5.5,10.2,10.2,5.4,16.1,5.4z"/>
</g>
</svg>
