<?xml version="1.0" encoding="utf-8"?>
<!-- Generator: Adobe Illustrator 26.3.1, SVG Export Plug-In . SVG Version: 6.00 Build 0)  -->
<svg version="1.1" id="Layer_1" xmlns="http://www.w3.org/2000/svg" xmlns:xlink="http://www.w3.org/1999/xlink" x="0px" y="0px"
	 viewBox="0 0 32 32" style="enable-background:new 0 0 32 32;" xml:space="preserve">
<style type="text/css">
	.st0{fill-rule:evenodd;clip-rule:evenodd;fill:#F7DF1E;}
	.st1{clip-path:url(#SVGID_00000061447414795395175330000017224867001385821839_);}
	.st2{fill:#F7DF1E;}
</style>
<path class="st0" d="M16,32c8.8,0,16-7.2,16-16c0-8.8-7.2-16-16-16C7.2,0,0,7.2,0,16C0,24.8,7.2,32,16,32z"/>
<g>
	<defs>
		<rect id="SVGID_1_" x="4.5" y="5.6" width="21.5" height="21.5"/>
	</defs>
	<clipPath id="SVGID_00000118386524549932980270000002563363904927064747_">
		<use xlink:href="#SVGID_1_"  style="overflow:visible;"/>
	</clipPath>
	<g style="clip-path:url(#SVGID_00000118386524549932980270000002563363904927064747_);">
		<path class="st2" d="M-3.5-5.2h31.7v31.7H-3.5V-5.2z"/>
		<path d="M4.9,21.3l2.4-1.5c0.5,0.8,0.9,1.5,1.9,1.5c1,0,1.6-0.4,1.6-1.9V9.3h3v10.2c0,3.1-1.8,4.5-4.4,4.5C7,24,5.6,22.8,4.9,21.3
			"/>
		<path d="M15.4,21l2.4-1.4c0.6,1,1.5,1.8,2.9,1.8c1.2,0,2-0.6,2-1.5c0-1-0.8-1.4-2.2-2l-0.7-0.3c-2.1-0.9-3.6-2.1-3.6-4.5
			c0-2.2,1.7-3.9,4.4-3.9c1.9,0,3.3,0.7,4.2,2.4L22.6,13c-0.5-0.9-1.1-1.3-1.9-1.3c-0.9,0-1.4,0.6-1.4,1.3c0,0.9,0.6,1.3,1.8,1.8
			l0.7,0.3c2.5,1.1,4,2.2,4,4.7c0,2.7-2.1,4.1-4.9,4.1C18.1,24,16.3,22.7,15.4,21"/>
	</g>
</g>
</svg>
