<?xml version="1.0" encoding="utf-8"?>
<!-- Generator: Adobe Illustrator 26.3.1, SVG Export Plug-In . SVG Version: 6.00 Build 0)  -->
<svg version="1.1" id="Layer_1" xmlns="http://www.w3.org/2000/svg" xmlns:xlink="http://www.w3.org/1999/xlink" x="0px" y="0px"
	 viewBox="0 0 32 32" style="enable-background:new 0 0 32 32;" xml:space="preserve">
<style type="text/css">
	.st0{fill-rule:evenodd;clip-rule:evenodd;fill:#222C37;}
	.st1{fill:#FFFFFF;}
	.st2{fill-rule:evenodd;clip-rule:evenodd;fill:#8CDB83;}
	.st3{fill-rule:evenodd;clip-rule:evenodd;fill:#FFFFFF;}
	.st4{fill-rule:evenodd;clip-rule:evenodd;fill:#A6A385;}
	.st5{fill-rule:evenodd;clip-rule:evenodd;fill:#499D4A;}
	.st6{fill-rule:evenodd;clip-rule:evenodd;fill:#58AA50;}
	.st7{fill-rule:evenodd;clip-rule:evenodd;fill:#8E714E;}
	.st8{fill-rule:evenodd;clip-rule:evenodd;fill:#442D22;}
</style>
<path class="st0" d="M72.8,32c8.8,0,16-7.2,16-16s-7.2-16-16-16s-16,7.2-16,16C56.8,24.8,64,32,72.8,32z"/>
<g>
	<path class="st1" d="M74.3,16l4.4-7.6l2.1,7.6l-2.1,7.6L74.3,16L74.3,16z M72.2,17.2l4.4,7.6l-7.6-2l-5.5-5.6H72.2L72.2,17.2z
		 M76.6,7.2l-4.4,7.6h-8.8l5.5-5.6L76.6,7.2L76.6,7.2z M82.8,13.4l-2.7-10l-10,2.7l-1.5,2.6h-3L58.4,16l7.3,7.3l0,0h3l1.5,2.6
		l10,2.7l2.7-10L81.3,16L82.8,13.4L82.8,13.4z"/>
</g>
<path class="st2" d="M16,32c8.8,0,16-7.2,16-16S24.8,0,16,0S0,7.2,0,16S7.1,32,16,32z"/>
<g>
	<path class="st3" d="M16.6,27.4l-0.7-0.2c0,0,0.1-3.6-1.2-3.9c-0.9-1,0.1-42.7,3.3-0.1c0,0-1.1,0.5-1.3,1.5
		C16.5,25.5,16.6,27.4,16.6,27.4L16.6,27.4L16.6,27.4z"/>
	<path class="st4" d="M16.6,27.4l-0.7-0.2c0,0,0.1-3.6-1.2-3.9c-0.9-1,0.1-42.7,3.3-0.1c0,0-1.1,0.5-1.3,1.5
		C16.5,25.5,16.6,27.4,16.6,27.4L16.6,27.4L16.6,27.4z"/>
	<path class="st3" d="M17,23.9c0,0,6.2-4.1,4.8-12.6c-1.4-6.2-4.7-8.2-5.1-9c-0.4-0.6-0.8-1.5-0.8-1.5l0.3,17.2
		C16.2,18,15.6,23.2,17,23.9"/>
	<path class="st5" d="M17,23.9c0,0,6.2-4.1,4.8-12.6c-1.4-6.2-4.7-8.2-5.1-9c-0.4-0.6-0.8-1.5-0.8-1.5l0.3,17.2
		C16.2,18,15.6,23.2,17,23.9"/>
	<path class="st3" d="M15.5,24.1c0,0-5.8-4-5.5-11c0.3-7,4.5-10.5,5.3-11.1c0.5-0.6,0.5-0.8,0.6-1.3c0.4,0.8,0.3,11.7,0.3,13
		C16.4,18.6,15.9,23.1,15.5,24.1L15.5,24.1L15.5,24.1z"/>
	<path class="st6" d="M15.5,24.1c0,0-5.8-4-5.5-11c0.3-7,4.5-10.5,5.3-11.1c0.5-0.6,0.5-0.8,0.6-1.3c0.4,0.8,0.3,11.7,0.3,13
		C16.4,18.6,15.9,23.1,15.5,24.1L15.5,24.1L15.5,24.1z"/>
</g>
<g>
	<g>
		<path class="st7" d="M19.3,28.7C19.2,28.7,19.2,28.7,19.3,28.7c0,0.1,0,0.2,0,0.4c0,0,0,0,0,0c0,0,0.1,0,0.1,0c0.1,0,0.1,0,0.1,0
			c0.1,0,0.1-0.1,0.1-0.2C19.6,28.8,19.5,28.7,19.3,28.7C19.3,28.7,19.3,28.7,19.3,28.7L19.3,28.7L19.3,28.7z M19.6,29.4
			c0-0.1-0.1-0.2-0.3-0.2c0,0-0.1,0-0.1,0c0,0,0,0,0,0c0,0.1,0,0.3,0,0.3c0,0,0,0.1,0,0.1c0,0,0.1,0,0.1,0
			C19.5,29.6,19.6,29.5,19.6,29.4L19.6,29.4L19.6,29.4z M18.9,28.6c0,0,0.1,0,0.2,0c0.1,0,0.2,0,0.3,0c0.1,0,0.3,0,0.3,0.2
			c0,0.1-0.1,0.2-0.2,0.2c0,0,0,0,0,0c0.1,0,0.2,0.1,0.2,0.3c0,0.1-0.1,0.2-0.2,0.3c-0.1,0-0.2,0-0.3,0c-0.1,0-0.3,0-0.4,0
			c0,0,0-0.1,0-0.1c0,0,0,0,0.1,0c0,0,0,0,0.1-0.1c0-0.1,0-0.2,0-0.4c0-0.2,0-0.3,0-0.4C19.1,28.7,19.1,28.7,18.9,28.6
			C19,28.7,19,28.7,18.9,28.6C18.9,28.7,18.9,28.6,18.9,28.6L18.9,28.6L18.9,28.6z M18.1,29.6c0,0,0.1,0,0.2,0c0.1,0,0.2,0,0.2-0.1
			c0.1-0.1,0.1-0.2,0.1-0.4c0-0.2-0.1-0.3-0.2-0.4c-0.1,0-0.2-0.1-0.3-0.1c0,0-0.1,0-0.1,0c0,0,0,0,0,0c0,0,0,0.3,0,0.4
			C18,29.3,18,29.5,18.1,29.6C18,29.5,18.1,29.5,18.1,29.6L18.1,29.6L18.1,29.6z M17.7,28.6c0,0,0.1,0,0.2,0c0.1,0,0.2,0,0.3,0
			c0.2,0,0.3,0,0.4,0.1c0.1,0.1,0.2,0.2,0.2,0.4c0,0.2-0.1,0.4-0.2,0.4c-0.1,0.1-0.2,0.1-0.4,0.1c-0.1,0-0.3,0-0.4,0h0
			c0,0,0-0.1,0-0.1c0,0,0,0,0.1,0c0,0,0,0,0-0.1c0-0.1,0-0.2,0-0.4c0-0.1,0-0.3,0-0.4C17.9,28.7,17.8,28.7,17.7,28.6
			C17.8,28.7,17.7,28.7,17.7,28.6C17.7,28.7,17.7,28.6,17.7,28.6L17.7,28.6L17.7,28.6z"/>
		<path class="st8" d="M15.9,29.6C15.9,29.6,15.8,29.6,15.9,29.6c-0.1,0-0.1,0-0.1,0c0-0.1,0-0.2,0-0.3c0-0.1,0-0.2,0-0.2
			c0-0.1-0.1-0.1-0.2-0.1c-0.1,0-0.2,0-0.2,0.1c0,0,0,0,0,0c0,0,0,0,0-0.1c0,0,0,0,0,0c0,0-0.2,0.1-0.2,0.1c0,0,0,0,0,0.1h0
			c0,0,0.1,0,0.1,0c0,0,0,0,0,0c0,0.1,0,0.3,0,0.4c0,0,0,0.1,0,0.1l0,0c0,0,0,0-0.1,0c0,0,0,0.1,0,0.1c0,0,0.1,0,0.2,0
			c0.1,0,0.2,0,0.2,0c0,0,0-0.1,0-0.1c0,0,0,0-0.1,0c0,0,0,0,0-0.1c0-0.1,0-0.2,0-0.4c0,0,0,0,0-0.1c0,0,0.1-0.1,0.1-0.1
			c0,0,0.1,0,0.1,0c0,0,0,0.1,0,0.1c0,0.1,0,0.2,0,0.3c0,0.1,0,0.1,0,0.1c0,0,0,0-0.1,0c0,0,0,0.1,0,0.1c0,0,0.1,0,0.2,0
			C15.8,29.7,15.9,29.7,15.9,29.6C15.9,29.7,15.9,29.6,15.9,29.6L15.9,29.6L15.9,29.6z M16.3,29c-0.1,0-0.1,0.1-0.1,0.2
			c0,0.1,0,0.2,0.2,0.2c0,0,0.1,0,0.1,0c0,0,0-0.1,0-0.1C16.5,29.1,16.4,29,16.3,29L16.3,29L16.3,29z M16.3,29.7
			C16.3,29.7,16.3,29.7,16.3,29.7c-0.1,0.1-0.2,0.1-0.2,0.1c0,0,0,0.1,0.1,0.1c0,0,0.1,0.1,0.2,0.1c0.2,0,0.2-0.1,0.2-0.2
			c0-0.1,0-0.1-0.1-0.1C16.5,29.7,16.4,29.7,16.3,29.7L16.3,29.7L16.3,29.7z M16.3,30.1c-0.1,0-0.2,0-0.2-0.1
			c-0.1,0-0.1-0.1-0.1-0.1c0,0,0,0,0-0.1c0,0,0.1-0.1,0.1-0.1c0,0,0,0,0,0s0,0,0,0c-0.1,0-0.1-0.1-0.1-0.1v0c0,0,0,0,0,0
			c0,0,0,0,0,0c0,0,0.1,0,0.1,0c0,0,0,0,0,0s0,0,0,0c-0.1,0-0.2-0.1-0.2-0.2c0-0.1,0-0.1,0.1-0.2c0,0,0.1-0.1,0.2-0.1h0
			c0.1,0,0.1,0,0.2,0c0,0,0.1,0,0.1,0c0.1,0,0.1,0,0.1,0c0,0,0,0,0,0c0,0,0,0,0,0.1c0,0,0,0-0.1,0h0c0,0,0,0,0,0l0,0c0,0,0,0,0,0
			l0,0c0,0,0,0.1,0,0.1c0,0.1,0,0.2-0.1,0.2c-0.1,0-0.1,0.1-0.2,0.1c0,0,0,0,0,0c0,0,0,0,0,0h0c0,0,0,0,0,0c0,0,0,0,0.1,0.1
			c0,0,0,0,0,0c0.1,0,0.2,0,0.2,0c0.1,0,0.1,0.1,0.1,0.2c0,0.1-0.1,0.2-0.2,0.3C16.5,30.1,16.4,30.1,16.3,30.1L16.3,30.1L16.3,30.1z
			 M17.2,29C17.2,29,17.1,29.1,17.2,29C17,29.1,17,29.2,17,29.3c0,0.2,0.1,0.3,0.2,0.3c0,0,0.1,0,0.1,0c0,0,0.1-0.1,0.1-0.2
			C17.4,29.2,17.3,29,17.2,29L17.2,29L17.2,29z M17.2,29.7c-0.3,0-0.3-0.2-0.3-0.4c0-0.1,0-0.2,0.1-0.3c0.1,0,0.2-0.1,0.2-0.1
			c0.2,0,0.3,0.1,0.3,0.3c0,0.1-0.1,0.2-0.2,0.3C17.4,29.7,17.3,29.7,17.2,29.7L17.2,29.7L17.2,29.7z M14.5,29
			C14.5,29,14.5,29.1,14.5,29c-0.1,0.1-0.2,0.1-0.2,0.2c0,0.2,0.1,0.3,0.2,0.3c0,0,0.1,0,0.1,0c0,0,0.1-0.1,0.1-0.2
			C14.8,29.2,14.7,29,14.5,29L14.5,29L14.5,29z M14.6,29.7c-0.3,0-0.3-0.2-0.3-0.4c0-0.1,0-0.2,0.1-0.3c0.1,0,0.2-0.1,0.2-0.1
			c0.2,0,0.3,0.1,0.3,0.3c0,0.1-0.1,0.2-0.2,0.3C14.7,29.7,14.6,29.7,14.6,29.7L14.6,29.7L14.6,29.7z M12.8,29.7
			C12.8,29.7,12.8,29.7,12.8,29.7C12.8,29.6,12.8,29.6,12.8,29.7C12.9,29.6,12.9,29.6,12.8,29.7c0.1-0.1,0.1-0.1,0.1-0.1
			c0-0.1,0-0.3,0-0.4v0c0,0,0,0,0,0c0,0-0.1,0-0.1,0c0,0,0,0,0,0c0,0,0,0,0,0c0,0,0.2,0,0.2-0.1c0,0,0,0,0,0l0,0c0,0,0,0,0,0.1
			c0,0,0,0,0,0c0,0,0,0,0,0c0.1-0.1,0.2-0.1,0.2-0.1c0.1,0,0.1,0,0.2,0.1c0,0,0,0,0,0c0,0,0,0,0,0c0.1-0.1,0.2-0.1,0.2-0.1
			c0.1,0,0.2,0.1,0.2,0.3c0,0,0,0.1,0,0.2c0,0.1,0,0.1,0,0.1c0,0,0,0,0,0c0,0,0,0,0.1,0h0c0,0,0,0,0,0.1c0,0,0,0,0,0
			c0,0-0.1,0-0.1,0c-0.1,0-0.1,0-0.2,0c0,0,0,0,0-0.1c0,0,0,0,0.1,0c0,0,0,0,0-0.1c0,0,0-0.3,0-0.3c0-0.1-0.1-0.1-0.2-0.1
			c0,0-0.1,0-0.2,0.1c0,0,0,0,0,0v0c0,0,0,0.1,0,0.1v0.1c0,0.1,0,0.1,0,0.2c0,0,0,0,0,0c0,0,0,0,0,0c0,0,0,0,0,0c0,0,0,0,0,0
			c0,0,0,0,0,0c-0.1,0-0.1,0-0.2,0c0,0-0.1,0-0.1,0c0,0-0.1,0-0.1,0c0,0,0,0,0,0c0,0,0,0,0,0c0,0,0,0,0,0c0,0,0,0,0,0c0,0,0,0,0-0.1
			c0-0.1,0-0.3,0-0.3c0-0.1-0.1-0.1-0.1-0.1c0,0-0.1,0-0.2,0.1c0,0,0,0,0,0v0.1c0,0.1,0,0.2,0,0.3c0,0,0,0,0,0c0,0,0,0,0,0l0,0
			c0,0,0,0,0,0.1c0,0,0,0-0.1,0c0,0-0.1,0-0.1,0C13,29.7,12.9,29.7,12.8,29.7C12.9,29.7,12.8,29.7,12.8,29.7L12.8,29.7L12.8,29.7z"
			/>
	</g>
</g>
</svg>
