<?xml version="1.0" encoding="utf-8"?>
<!-- Generator: Adobe Illustrator 26.3.1, SVG Export Plug-In . SVG Version: 6.00 Build 0)  -->
<svg version="1.1" id="Layer_1" xmlns="http://www.w3.org/2000/svg" xmlns:xlink="http://www.w3.org/1999/xlink" x="0px" y="0px"
	 viewBox="0 0 32 32" style="enable-background:new 0 0 32 32;" xml:space="preserve">
<style type="text/css">
	.st0{fill-rule:evenodd;clip-rule:evenodd;fill:#222C37;}
	.st1{fill:#FFFFFF;}
	.st2{clip-path:url(#SVGID_00000094620088551426750060000016151937023291340682_);}
	.st3{fill:url(#SVGID_00000099629621169246574440000000979865150796002995_);}
	.st4{clip-path:url(#SVGID_00000121262215102334933770000017443492414580922001_);}
	.st5{fill:url(#SVGID_00000174569766701204768840000009669502411616626103_);}
	.st6{clip-path:url(#SVGID_00000090275805780710844300000010334193407545884045_);}
	.st7{fill:url(#SVGID_00000025420329527225049120000006691619926851175331_);}
	.st8{fill:url(#SVGID_00000109002463995468109580000018310732453271383685_);}
	.st9{fill:url(#SVGID_00000146477675675705667400000010621070178057459606_);}
</style>
<path class="st0" d="M72.8,32c8.8,0,16-7.2,16-16c0-8.8-7.2-16-16-16c-8.8,0-16,7.2-16,16C56.8,24.8,64,32,72.8,32z"/>
<g>
	<path class="st1" d="M74.3,16l4.4-7.6l2.1,7.6l-2.1,7.6L74.3,16L74.3,16z M72.2,17.2l4.4,7.6l-7.6-2l-5.5-5.6H72.2L72.2,17.2z
		 M76.6,7.2l-4.4,7.6h-8.8l5.5-5.6L76.6,7.2L76.6,7.2z M82.8,13.4l-2.7-10l-10,2.7l-1.5,2.6l-3,0L58.4,16l7.3,7.3h0l3,0l1.5,2.6
		l10,2.7l2.7-10L81.3,16L82.8,13.4L82.8,13.4z"/>
</g>
<g>
	<defs>
		<path id="SVGID_1_" d="M15.3,0.5L2.9,7.6C2.5,7.9,2.2,8.4,2.2,8.9v14.2c0,0.5,0.3,1,0.7,1.3l12.3,7.1c0.5,0.3,1,0.3,1.5,0
			l12.3-7.1c0.5-0.3,0.7-0.8,0.7-1.3V8.9c0-0.5-0.3-1-0.7-1.3L16.7,0.5c-0.2-0.1-0.5-0.2-0.7-0.2S15.5,0.4,15.3,0.5"/>
	</defs>
	<clipPath id="SVGID_00000029764799949092147740000002714680725941953935_">
		<use xlink:href="#SVGID_1_"  style="overflow:visible;"/>
	</clipPath>
	<g transform="translate(-78.306 -164.016)" style="clip-path:url(#SVGID_00000029764799949092147740000002714680725941953935_);">
		
			<linearGradient id="SVGID_00000059282354672934737130000000202137720904534707_" gradientUnits="userSpaceOnUse" x1="-208.876" y1="578.6155" x2="-208.5255" y2="578.6155" gradientTransform="matrix(-50.7531 103.536 103.536 50.7531 -70405.4453 -7578.4561)">
			<stop  offset="0.3" style="stop-color:#3E863D"/>
			<stop  offset="0.5" style="stop-color:#55934F"/>
			<stop  offset="0.8" style="stop-color:#5AAD45"/>
		</linearGradient>
		<path style="fill:url(#SVGID_00000059282354672934737130000000202137720904534707_);" d="M120.5,170.4l-34.7-17l-17.8,36.3
			l34.7,17L120.5,170.4z"/>
	</g>
</g>
<g>
	<defs>
		<path id="SVGID_00000096743212673747307970000004488429906022326435_" d="M2.5,24c0.1,0.2,0.3,0.3,0.4,0.4l10.6,6.1l1.8,1
			c0.3,0.2,0.6,0.2,0.9,0.2c0.1,0,0.2,0,0.3-0.1l13-23.8c-0.1-0.1-0.2-0.2-0.3-0.3L21,2.9l-4.3-2.5c-0.1-0.1-0.3-0.1-0.4-0.2L2.5,24
			z"/>
	</defs>
	<clipPath id="SVGID_00000094614674248176469670000000713597344632520095_">
		<use xlink:href="#SVGID_00000096743212673747307970000004488429906022326435_"  style="overflow:visible;"/>
	</clipPath>
	<g transform="translate(-78.306 -164.016)" style="clip-path:url(#SVGID_00000094614674248176469670000000713597344632520095_);">
		
			<linearGradient id="SVGID_00000082350027895403023930000001089788243311847566_" gradientUnits="userSpaceOnUse" x1="-211.1553" y1="575.6353" x2="-210.9279" y2="575.6353" gradientTransform="matrix(142.4074 -105.2221 -105.2221 -142.4074 90717.7031 59948.5117)">
			<stop  offset="0.57" style="stop-color:#3E863D"/>
			<stop  offset="0.72" style="stop-color:#619857"/>
			<stop  offset="1" style="stop-color:#76AC64"/>
		</linearGradient>
		<path style="fill:url(#SVGID_00000082350027895403023930000001089788243311847566_);" d="M65.8,175.4l24.5,33.2l32.4-23.9
			l-24.5-33.2L65.8,175.4z"/>
	</g>
</g>
<g>
	<defs>
		<path id="SVGID_00000163042235759904611210000000389977406437538711_" d="M15.9,0.3c-0.2,0-0.4,0.1-0.6,0.2L3,7.6l13.2,24.1
			c0.2,0,0.4-0.1,0.5-0.2l12.3-7.1c0.4-0.2,0.6-0.6,0.7-1L16.3,0.3c-0.1,0-0.2,0-0.3,0C15.9,0.3,15.9,0.3,15.9,0.3"/>
	</defs>
	<clipPath id="SVGID_00000076570460331745708480000003943761855625601466_">
		<use xlink:href="#SVGID_00000163042235759904611210000000389977406437538711_"  style="overflow:visible;"/>
	</clipPath>
	<g transform="translate(-78.306 -164.016)" style="clip-path:url(#SVGID_00000076570460331745708480000003943761855625601466_);">
		
			<linearGradient id="SVGID_00000082339359638795519090000000400040779515694986_" gradientUnits="userSpaceOnUse" x1="-209.622" y1="575.162" x2="-209.4157" y2="575.162" gradientTransform="matrix(129.8891 0 0 -129.8891 27308.9023 74887.2891)">
			<stop  offset="0.16" style="stop-color:#6BBF47"/>
			<stop  offset="0.38" style="stop-color:#79B461"/>
			<stop  offset="0.47" style="stop-color:#75AC64"/>
			<stop  offset="0.7" style="stop-color:#659E5A"/>
			<stop  offset="0.9" style="stop-color:#3E863D"/>
		</linearGradient>
		<path style="fill:url(#SVGID_00000082339359638795519090000000400040779515694986_);" d="M81.3,164.3v31.4h26.8v-31.4L81.3,164.3z
			"/>
	</g>
</g>
<linearGradient id="SVGID_00000115474528983507318370000008617103783030250642_" gradientUnits="userSpaceOnUse" x1="2.1875" y1="15.9931" x2="30.0396" y2="15.9931">
	<stop  offset="0.16" style="stop-color:#6BBF47"/>
	<stop  offset="0.38" style="stop-color:#79B461"/>
	<stop  offset="0.47" style="stop-color:#75AC64"/>
	<stop  offset="0.7" style="stop-color:#659E5A"/>
	<stop  offset="0.9" style="stop-color:#3E863D"/>
</linearGradient>
<path style="fill:url(#SVGID_00000115474528983507318370000008617103783030250642_);" d="M16.1,31.7c-0.4,0-0.8-0.1-1.2-0.3
	l-3.8-2.3c-0.6-0.3-0.3-0.4-0.1-0.5c0.8-0.3,0.9-0.3,1.7-0.8c0.1,0,0.2,0,0.3,0l3,1.8c0.1,0.1,0.3,0.1,0.4,0l11.5-6.6
	c0.1-0.1,0.2-0.2,0.2-0.3V9.3c0-0.1-0.1-0.3-0.2-0.3L16.3,2.4c-0.1-0.1-0.2-0.1-0.4,0L4.4,9C4.3,9.1,4.3,9.2,4.3,9.3v13.3
	c0,0.1,0.1,0.2,0.2,0.3l3.2,1.8c1.7,0.9,2.8-0.2,2.8-1.2V10.5c0-0.2,0.1-0.3,0.3-0.3h1.5c0.2,0,0.3,0.1,0.3,0.3v13.1
	c0,2.3-1.2,3.6-3.4,3.6c-0.7,0-1.2,0-2.7-0.7l-3-1.7c-0.7-0.4-1.2-1.2-1.2-2.1V9.3c0-0.9,0.5-1.7,1.2-2.1l11.5-6.6
	c0.7-0.4,1.7-0.4,2.4,0l11.5,6.6C29.6,7.7,30,8.5,30,9.3v13.3c0,0.9-0.5,1.7-1.2,2.1l-11.5,6.6C17,31.6,16.5,31.7,16.1,31.7"/>
<linearGradient id="SVGID_00000119092179237682250070000013141539439570022035_" gradientUnits="userSpaceOnUse" x1="13.5832" y1="16.1796" x2="25.3931" y2="16.1796">
	<stop  offset="0.16" style="stop-color:#6BBF47"/>
	<stop  offset="0.38" style="stop-color:#79B461"/>
	<stop  offset="0.47" style="stop-color:#75AC64"/>
	<stop  offset="0.7" style="stop-color:#659E5A"/>
	<stop  offset="0.9" style="stop-color:#3E863D"/>
</linearGradient>
<path style="fill:url(#SVGID_00000119092179237682250070000013141539439570022035_);" d="M19.7,22.5c-5,0-6.1-2.3-6.1-4.2
	c0-0.2,0.1-0.3,0.3-0.3h1.5c0.2,0,0.3,0.1,0.3,0.3c0.2,1.5,0.9,2.3,3.9,2.3c2.4,0,3.5-0.5,3.5-1.8c0-0.7-0.3-1.3-4.1-1.7
	c-3.2-0.3-5.1-1-5.1-3.5c0-2.3,2-3.7,5.2-3.7c3.7,0,5.5,1.3,5.7,4c0,0.1,0,0.2-0.1,0.3c-0.1,0.1-0.2,0.1-0.2,0.1h-1.5
	c-0.2,0-0.3-0.1-0.3-0.3c-0.4-1.6-1.2-2.1-3.6-2.1c-2.6,0-3,0.9-3,1.6c0,0.8,0.4,1.1,3.9,1.6c3.5,0.5,5.2,1.1,5.2,3.6
	C25.4,21.1,23.3,22.6,19.7,22.5"/>
</svg>
