<?xml version="1.0" encoding="utf-8"?>
<!-- Generator: Adobe Illustrator 26.3.1, SVG Export Plug-In . SVG Version: 6.00 Build 0)  -->
<svg version="1.1" id="Layer_1" xmlns="http://www.w3.org/2000/svg" xmlns:xlink="http://www.w3.org/1999/xlink" x="0px" y="0px"
	 viewBox="0 0 32 32" style="enable-background:new 0 0 32 32;" xml:space="preserve">
<style type="text/css">
	.st0{fill-rule:evenodd;clip-rule:evenodd;fill:#222C37;}
	.st1{fill:#FFFFFF;}
</style>
<path class="st0" d="M16,32c8.8,0,16-7.2,16-16c0-8.8-7.2-16-16-16C7.2,0,0,7.2,0,16C0,24.8,7.2,32,16,32z"/>
<g>
	<path class="st1" d="M17.5,16l4.4-7.6L24,16l-2.1,7.6L17.5,16L17.5,16z M15.3,17.2l4.4,7.6l-7.6-2l-5.5-5.6H15.3L15.3,17.2z
		 M19.7,7.2l-4.4,7.6H6.6l5.5-5.6L19.7,7.2L19.7,7.2z M26,13.4l-2.7-10l-10,2.7l-1.5,2.6l-3,0L1.5,16l7.3,7.3h0l3,0l1.5,2.6l10,2.7
		l2.7-10L24.5,16L26,13.4L26,13.4z"/>
</g>
</svg>
